<mxfile host="app.diagrams.net" modified="2024-05-12T09:26:00.704Z" agent="Mozilla/5.0 (Macintosh; Intel Mac OS X 10_15_7) AppleWebKit/537.36 (KHTML, like Gecko) Chrome/122.0.0.0 Safari/537.36" version="24.4.0" etag="r_0VsvAaRxb4dfueIAgN" type="github">
  <diagram name="第 1 页" id="T9z39OglkQ-IzXU7enYJ">
    <mxGraphModel>
      <root>
        <mxCell id="0" />
        <mxCell id="1" parent="0" />
      </root>
    </mxGraphModel>
  </diagram>
</mxfile>
